<?xml version="1.0" encoding="UTF-8"?>
<svg id="Livello_1" data-name="Livello 1" xmlns="http://www.w3.org/2000/svg" viewBox="0 0 634.6 152.6">
  <defs>
    <style>
      .cls-1 {
        fill: #fff;
      }
    </style>
  </defs>
  <path class="cls-1" d="M42.8,30.2c8.9,3.7,16.1,9.7,14.8,18.8-1.6,10.9-15,15.2-27.8,15.2H0C1,43.4,1,23.5,0,2.2l36.1.3c6,0,13.1,3.3,16.5,7.9,2.6,3.6,2.3,9,0,12.6s-6,5.4-9.8,7.2ZM20.8,35.1l3-7.9,8.6-1.7c3.5-.7,6.5-4.7,6.3-8.1-.5-7.8-10.7-8.6-22.1-7.9v47c11.5.3,23.1-.2,24.8-8.6s-1.4-7.5-4-9.1c-5-3-10.1-3.3-16.5-3.8Z"/>
  <path class="cls-1" d="M504,35.6c4,2.3,5.9,8.2,5.6,12.5-.8,11.3-14.9,16-28.2,16.1h-29.5c.9-20.9.8-40.6,0-62l35.9.3c6.5,0,13.7,3.3,17.1,8.6s1.6,8.7-.5,12.1-6,5.4-10,7l9.5,5.4ZM473.1,35.1l2.4-7c1-2.8,12.7-.2,14.9-8.6s-1.6-7.9-4.3-8.6c-6.4-1.5-11.1-1.6-17.6-1.2v46.7c12.2.9,24.8-1,25-9.5s-8.9-12-20.3-11.9Z"/>
  <path class="cls-1" d="M124,63.8h-11.6s-29.3-42.8-29.3-42.8l.6,42.8h-14.2c.7-21,.6-41.2,0-61.6h16.5c0-.1,24.5,35.9,24.5,35.9l-1-35.9h14.5c-.9,20.9-.9,39.9,0,61.6Z"/>
  <path class="cls-1" d="M373.7,30.9c5.3.5,10.5-.3,14.6-3.9s3.1-6.6,2.4-9.5-4.3-6.4-7.4-6.6l-14.9-.9.3,53.8h-16.9c.9-20.4.9-40.5,0-61.7h28.6c5.6,0,12.1,1.4,17.1,3.4,7.2,2.9,10.4,9.5,9.7,16.5s-5.2,11.9-13.6,14.4l18.5,27.7h-18.6c0,0-19.8-33.2-19.8-33.2Z"/>
  <path class="cls-1" d="M21.8,118.7c5,.3,10.9-.5,14.7-4.4s2.6-6.4,2.2-8.3c-1.7-7-12-8.9-22.3-7.8-.4,18.5-.3,35.1.3,53.3H0c1-20.7,1.1-40.1.2-61.3h28.3c5.6,0,12.3,1.4,17.1,3.6,7,3.2,9.8,9.5,9,16.6s-5.8,11.2-13.6,13.8l18.4,27.2-18.3-.3-19.2-32.6Z"/>
  <path class="cls-1" d="M195.6,19.9c.3,16.9-19.9,19.9-39.3,18.8l.8,25.2h-16.9c.6-21.5.5-40.9,0-61.7h28.5c6.1,0,12.5,1.7,18.1,3.6,5.4,3.7,8.7,8.2,8.8,14ZM173.6,28.6c3.9-1.3,6.2-6.7,5.6-9.9-1.5-8.1-11.6-9.1-22.6-8.8l-.2,21c6.8,0,11.1-.2,17.3-2.3Z"/>
  <path class="cls-1" d="M322.7,49.8l-24.4-.2-5.2,14.8-14.7-.2,27.5-61.5,12.1-.2,27.4,61.7-17.3.4-5.4-14.6ZM318.9,41.2l-8.5-20.1-8.9,20h17.4Z"/>
  <path class="cls-1" d="M556.7,49.6l-24-.2-5.4,14.6h-14.7s27.5-61.5,27.5-61.5l12-.3,27.4,61.6-17.4.3-5.3-14.5ZM553.1,41.1l-8.7-19.9-8.9,20.1,17.6-.2Z"/>
  <path class="cls-1" d="M283.5,20.9c-.6,16.4-21.2,18.8-39.4,17.8l1,25.3h-17c.7-21.5.6-40.9,0-61.7h28.9c6.1,0,12.4,1.8,18,3.7,5.5,3.8,8.7,8.8,8.4,14.9ZM267.1,19.9c-.5-8.7-11.4-11-22.8-9.5l-.2,20.5c12.1.6,23.5-2,23-11Z"/>
  <path class="cls-1" d="M634.6,45.7c.2,20.1-29.2,23.3-49.8,15.9l.3-13.3c13.9,7.4,34,9.8,34.4,1.4s-2.2-6.2-4.3-7.2l-21.5-9.8c-5.8-2.6-9.9-8.6-9.9-14.2-.2-18.5,25.6-21.9,45.4-15.7v13.5c-11.8-5.7-28.8-8.8-30.3-1.8s1.8,6,3.5,6.7l22.5,10.1c5.8,2.6,9.6,9,9.7,14.3Z"/>
  <path class="cls-1" d="M164,136.9h-23.8c0,0-4.8,14.5-4.8,14.5l-15,.2,27.2-60.7c3.1-.6,7.9-.7,12-.4l27.1,61h-17c0,.1-5.7-14.5-5.7-14.5ZM160.6,128.6l-8.4-19.5-8.7,19.6h17.1Z"/>
  <path class="cls-1" d="M472.6,137h-23.8c0,0-5,14.6-5,14.6l-14.8-.2,27.2-60.7h11.9c0-.1,27.1,60.7,27.1,60.7l-16.8.3-5.7-14.7ZM469,128.6l-8.3-19.8-8.8,20,17.1-.2Z"/>
  <path class="cls-1" d="M377.1,133.8c-.4,19.6-28.6,22-49.2,15.7l.2-13.7c13.3,6.8,32.5,10.2,34.2,2s-1.8-6.5-3.7-7.4l-22.4-10.1c-6.4-2.9-9.8-9.8-9.2-16.1,1.5-16,26-17.7,44.8-13.1v13.9c-15.3-8.7-32.6-6.7-30,.2.6,1.5,2.7,4.3,4.3,5l20.9,8.9c6.2,2.6,10.2,9,10.1,14.6Z"/>
  <path class="cls-1" d="M103.6,125l-22.3-.6.4,18.9,34.3-.8v9.1c0,0-50.8,0-50.8,0,1-20.7,1-40.2,0-61.3h48.9s0,8.8,0,8.8l-32.4-.6-.6,17.3,22.4-.5v9.6Z"/>
  <path class="cls-1" d="M591.9,125l-22.4-.7.4,18.9,34.2-.7.2,9.1h-50.9c.9-20.3.9-40.7,0-61.3h49.3s0,8.8,0,8.8l-32.6-.5-.6,17.3,22.4-.5v9.6Z"/>
  <path class="cls-1" d="M306.4,125l-22.4-.7.4,18.9,34.2-.7.2,9.1h-50.9c1-20.4,1-40.7,0-61.3h49.3s0,8.8,0,8.8l-32.6-.5-.6,17.3,22.4-.5v9.6Z"/>
  <polygon class="cls-1" points="415.7 151.6 399 151.6 399.5 98.2 379.5 99.2 379.6 90.2 435.4 90.2 435.3 99.2 415.2 98.2 415.7 151.6"/>
  <polygon class="cls-1" points="525 151.5 508.2 151.5 508.7 98.2 489 99.2 489.1 90.2 544.7 90.2 544.7 99.2 524.5 98.2 525 151.5"/>
  <path class="cls-1" d="M239.7,142.5v9c0,0-47.8,0-47.8,0,.9-20.7.7-40.2,0-61.3h16.7s-.4,52.9-.4,52.9l31.5-.6Z"/>
  <path class="cls-1" d="M436.5,63.9h-16.9c.9-20.8.9-40.5,0-61.7h17c-.8,21.1-.8,40.9,0,61.7Z"/>
</svg>