<svg width="168" height="169" viewBox="0 0 168 169" fill="none" xmlns="http://www.w3.org/2000/svg">
<path d="M28.4569 71.3605H8.77933V80.9236H25.8221C26.6616 80.9236 27.3393 81.59 27.3393 82.4155V86.6525C27.3393 87.478 26.6616 88.1444 25.8221 88.1444H8.77933V104.083C8.77933 104.908 8.10166 105.575 7.26216 105.575H1.51716C0.677666 105.575 0 104.908 0 104.083V65.5471C0 64.7216 0.677666 64.0552 1.51716 64.0552H28.4569C29.2964 64.0552 29.9741 64.7216 29.9741 65.5471V69.8686C29.9741 70.6941 29.2964 71.3605 28.4569 71.3605Z" fill="white"/>
<path d="M63.7979 87.4079H44.7777V98.0999H66.6654C67.5049 98.0999 68.1825 98.7662 68.1825 99.5918V104.082C68.1825 104.908 67.5049 105.574 66.6654 105.574H37.6622C36.8227 105.574 36.1451 104.908 36.1451 104.082V65.4919C36.1451 64.6664 36.8227 64 37.6622 64H65.6337C66.4732 64 67.1508 64.6664 67.1508 65.4919V69.8681C67.1508 70.6937 66.4732 71.36 65.6337 71.36H44.7777V80.1871H63.7979C64.6374 80.1871 65.3151 80.8535 65.3151 81.679V85.916C65.3151 86.7415 64.6374 87.4079 63.7979 87.4079Z" fill="white"/>
<path d="M107.739 105.574H101.301C100.76 105.574 100.254 105.291 99.9862 104.828L83.1558 76.0446V104.082C83.1558 104.908 82.4781 105.574 81.6386 105.574H76.4398C75.6003 105.574 74.9226 104.908 74.9226 104.082V65.4919C74.9226 64.6664 75.6003 64 76.4398 64H83.3075C83.8537 64 84.3543 64.2884 84.6274 64.7509L101.028 93.0224V65.4919C101.028 64.6664 101.706 64 102.545 64H107.744C108.583 64 109.261 64.6664 109.261 65.4919V104.082C109.261 104.908 108.583 105.574 107.744 105.574H107.739Z" fill="white"/>
<path d="M135.7 105.574H119.001C118.162 105.574 117.484 104.908 117.484 104.082V65.4919C117.484 64.6664 118.162 64 119.001 64H135.7C138.32 64.0398 140.499 64.3382 142.239 64.9051C145.203 65.8649 147.605 67.6203 149.441 70.1814C150.912 72.2502 151.919 74.4881 152.455 76.895C152.991 79.3019 153.259 81.5945 153.259 83.7776C153.259 89.3076 152.131 93.9872 149.876 97.8263C146.816 102.998 142.092 105.584 135.705 105.584L135.7 105.574ZM142.27 74.6024C140.909 72.3447 138.224 71.2158 134.208 71.2158H126.061V98.3485H134.208C138.375 98.3485 141.283 96.3295 142.927 92.2864C143.827 90.0685 144.277 87.4278 144.277 84.3595C144.277 80.1274 143.61 76.8751 142.27 74.6024Z" fill="white"/>
<path d="M160.738 64H166.483C167.322 64 168 64.6664 168 65.4919V104.082C168 104.908 167.322 105.574 166.483 105.574H160.738C159.898 105.574 159.221 104.908 159.221 104.082V65.4919C159.221 64.6664 159.898 64 160.738 64Z" fill="white"/>
</svg>
