<svg width="163" height="56" viewBox="0 0 163 56" fill="none" xmlns="http://www.w3.org/2000/svg">
<path d="M81.4255 55.8148C36.7339 55.8148 0.505127 43.3307 0.505127 27.9295C0.505127 12.5265 36.7345 0.0429688 81.4255 0.0429688C126.113 0.0429688 162.34 12.5258 162.34 27.9295C162.34 43.33 126.111 55.8148 81.4255 55.8148ZM81.4255 2.45902C38.3042 2.45902 3.34979 13.8605 3.34979 27.9295C3.34979 41.9992 38.3029 53.4019 81.4255 53.4019C124.546 53.4019 159.495 41.9985 159.495 27.9295C159.495 13.8605 124.544 2.45902 81.4255 2.45902Z" fill="white"/>
<path d="M60.3175 6.98852C59.1691 6.99214 58.0148 7.03682 56.8528 7.13191C49.1348 7.77513 41.7885 12.0778 41.7751 18.6104C41.7669 21.923 44.1453 24.6072 47.8307 24.4891C52.1612 24.3437 55.7162 20.9084 57.5773 16.5773C58.2834 14.934 56.9757 14.2514 56.3534 15.1975C55.2696 16.8503 53.7598 18.18 51.9834 19.0465C49.9458 20.0345 47.7679 19.7679 47.1075 18.1297C46.1792 15.8184 48.1089 12.3598 52.5124 10.7324C58.8728 8.40082 65.5278 9.94318 71.9315 11.1344C72.0229 11.1344 72.364 11.3217 72.0624 11.4773C70.9156 12.0964 69.7866 12.5998 68.0278 14.0983C66.7667 15.1676 65.1158 16.5912 63.8389 18.1418C62.5715 19.6702 61.6732 21.0334 60.4845 22.5446C60.3188 22.763 60.1148 22.753 60.1173 22.753C57.22 23.2374 54.3836 23.562 51.7866 25.3501C51.2494 25.7171 51.0162 26.3685 51.3419 26.867C51.6347 27.3089 52.3042 27.3558 52.769 27.0212C54.3824 25.8262 56.0435 25.2637 57.9484 25.2116C58.0316 25.2167 58.0716 25.23 58.0951 25.2808C58.1097 25.3094 58.1008 25.3696 58.0665 25.414C55.213 29.3337 54.4984 30.2195 52.3516 32.6495C51.2537 33.8985 50.1737 34.9527 48.9673 36.0499C44.0933 40.5334 38.8508 40.4559 36.9701 37.6449C35.8462 35.9578 35.9943 34.1868 36.7309 32.7175C37.6376 30.918 39.4699 29.5991 40.9939 28.8288C41.5596 28.5431 41.7224 27.8269 41.156 27.1741C40.7959 26.7487 39.9227 26.6731 39.2725 26.7912C37.2762 27.1563 34.9172 28.6506 33.5234 30.4488C31.9525 32.4667 31.1678 34.9165 31.4313 37.6659C31.9044 42.6269 36.0298 45.4926 40.7133 45.4595C44.4401 45.4307 47.9505 44.3127 52.1744 40.0671C56.1118 36.1075 59.699 30.1928 63.058 24.7079C63.1634 24.5327 63.2382 24.4387 63.7487 24.3759C65.8555 24.1149 68.9664 23.8178 70.9602 23.7035C71.4034 23.6794 71.4935 23.6843 71.6713 23.9034C72.1907 24.5523 72.9709 25.1031 73.5957 25.4383C73.9005 25.6022 74.0454 25.6839 74.2848 25.6877C74.58 25.6941 74.8098 25.5368 74.9584 25.3704C75.1699 25.1406 75.2282 24.8399 75.114 24.6462C74.9946 24.443 73.6042 23.6801 73.5629 23.3715C73.5324 23.1791 73.745 23.1326 73.745 23.1326C74.7673 22.8151 75.8308 22.1617 76.4753 20.9394C77.1084 19.7361 77.2106 18.1303 76.0524 17.2375C75.0358 16.4533 73.4998 16.5771 72.2744 17.666C71.0755 18.7233 70.6789 20.2614 70.8408 21.6094C70.87 21.8431 70.8578 21.9217 70.5359 21.9484C68.6933 22.0944 66.9178 22.1451 64.9431 22.2486C64.811 22.2582 64.7691 22.1718 64.8459 22.081C67.1197 18.1696 70.5148 15.3842 74.27 12.6411C74.5189 12.4564 74.4429 12.105 74.4328 11.8116C81.2129 13.2701 87.7653 15.9848 94.7995 15.927C97.7083 15.9035 100.493 15.4654 103.155 14.0196C105.496 12.7554 106.446 11.5858 106.516 10.3705C106.57 9.53044 105.98 8.99943 105.14 9.18039C98.0331 10.797 91.253 10.7792 84.182 9.93213C76.1059 8.9615 68.3562 6.96333 60.3175 6.98852ZM74.5043 18.3243C74.6704 18.3331 74.8258 18.3882 74.9515 18.4949C75.3262 18.8117 75.1488 19.6023 74.7704 20.1496C74.357 20.7535 73.656 21.2747 73.0166 21.4017C72.8883 21.4252 72.7772 21.3707 72.7245 21.0894C72.6204 20.3445 72.865 19.3471 73.6689 18.6442C73.9205 18.4239 74.2274 18.3096 74.5043 18.3243ZM131.558 18.467C130.266 18.467 128.572 18.4693 127.225 18.4693C126.904 18.4693 126.738 18.508 126.587 18.8033C126.09 19.7462 120.034 28.7331 118.906 30.4786C118.717 30.7441 118.484 30.707 118.458 30.4042C118.343 29.3679 117.44 28.1768 116.015 27.6066C114.93 27.1703 113.868 27.0917 112.765 27.2364C110.773 27.5012 108.999 28.5426 107.438 29.7154C105.087 31.4864 103.058 33.779 100.439 35.4744C99.009 36.397 97.0515 37.2017 95.7415 36.0016C94.556 34.9133 94.6893 32.4953 96.5034 30.626C96.6946 30.4298 96.9239 30.5935 96.8877 30.7694C96.7162 31.6151 96.9271 32.456 97.5754 33.0459C98.3666 33.7475 99.4992 33.8275 100.468 33.3589C101.612 32.7983 102.284 31.7141 102.481 30.4836C102.784 28.5755 101.3 26.8923 99.4447 26.7577C97.9367 26.6529 96.491 27.1723 95.0826 28.3242C94.3759 28.9039 93.9738 29.3331 93.3636 30.1929C93.2144 30.4049 92.9859 30.4265 92.9935 30.1134C93.064 27.6707 92.0428 26.2962 90.0026 26.2511C88.4203 26.2143 86.7284 27.0636 85.4102 28.105C83.965 29.2543 82.7014 30.777 81.347 32.2082C81.1787 32.3847 81.0314 32.3765 80.9844 32.0343C80.9432 30.4158 80.5322 28.848 79.7753 27.7349C79.508 27.3475 78.9447 27.1556 78.471 27.4172C78.2526 27.536 77.4914 27.8822 76.9383 28.3235C76.6634 28.5477 76.5572 28.872 76.6778 29.2879C77.408 31.7052 77.2474 34.4546 76.2568 36.7773C75.3469 38.9032 73.5786 40.8222 71.501 41.4712C70.132 41.901 68.7083 41.6908 67.8276 40.4888C66.618 38.8302 67.1071 35.9463 68.9091 33.5506C70.501 31.4425 72.8015 30.1026 75.0982 29.2396C75.3687 29.1368 75.4238 28.9656 75.3476 28.7383C75.2225 28.3636 75.0239 27.8554 74.942 27.6223C74.7318 27.068 74.1419 26.9772 73.4225 27.0553C71.7544 27.2477 70.2502 27.8134 68.7637 28.6014C64.8714 30.6651 62.9207 34.6591 62.0647 36.7964C61.6533 37.8218 61.301 38.4632 60.8458 39.0309C60.2324 39.7948 59.4621 40.4895 58.0537 41.7143C57.9268 41.8267 57.8316 42.0609 57.9382 42.278C58.0824 42.5733 58.8144 43.5969 59.0214 43.6883C59.2506 43.8001 59.5165 43.6441 59.6232 43.5679C60.6086 42.9069 61.7878 41.8585 62.365 41.1473C62.5669 40.9041 62.7754 41.0065 62.8828 41.376C63.4212 43.2784 64.8312 44.8313 66.7812 45.4809C70.3497 46.6727 74.0516 44.9477 76.8455 41.945C78.6208 40.0369 79.2616 38.8093 79.9423 37.975C81.0954 36.5596 83.3711 33.3938 86.0805 31.3613C87.0743 30.612 88.2509 30.0405 88.8427 30.4196C89.317 30.7244 89.4701 31.4322 88.7082 32.8037C85.9461 37.799 81.8795 43.6681 81.1341 45.0924C80.9982 45.3394 81.1169 45.533 81.3779 45.533C82.8237 45.5267 84.2575 45.5297 85.57 45.5297C85.7878 45.5196 85.8863 45.4212 85.9956 45.2682C88.1157 41.9822 90.1114 38.8533 92.25 35.6194C92.3706 35.4289 92.4804 35.5765 92.4849 35.6597C92.5293 36.4096 92.7152 37.4365 93.1648 38.1108C93.9737 39.3566 95.1194 39.8918 96.3906 39.9001C97.4014 39.9115 97.9125 39.7593 99.0028 39.356C99.7655 39.0725 100.487 38.689 101.149 38.2155C101.468 37.9964 101.524 38.3637 101.516 38.4202C101.026 41.0293 101.632 44.1201 104.25 45.4021C107.384 46.9324 110.827 44.7818 112.808 42.8407C113.002 42.6534 113.211 42.6731 113.231 43.0757C113.272 43.8173 113.61 44.6969 114.23 45.3128C115.89 46.9625 119.24 46.3089 122.602 43.7316C124.761 42.0826 127.02 39.7517 129.06 37.2836C129.135 37.1884 129.192 37.034 129.046 36.879C128.734 36.5571 128.285 36.1887 127.977 35.9048C127.837 35.7867 127.63 35.8205 127.512 35.9101C125.421 37.8791 123.539 40.1251 120.817 41.9824C119.9 42.6161 118.438 43.1279 117.781 42.2478C117.525 41.9062 117.554 41.433 117.806 40.8126C118.601 38.8531 131.16 19.9196 131.811 18.8046L131.812 18.8033C131.924 18.609 131.806 18.467 131.558 18.467ZM113.961 30.3038C114.29 30.3009 114.597 30.3636 114.878 30.497C116.425 31.2279 115.931 33.0014 115.239 34.3938C115.216 34.4375 115.201 34.4853 115.196 34.5346C115.191 34.5839 115.197 34.6336 115.211 34.681C115.237 34.8257 115.427 34.966 115.614 35.0327C115.68 35.0568 115.717 35.1038 115.642 35.2562C115.108 36.3896 114.617 37.043 113.948 38.0272C113.333 38.9371 112.639 39.6464 111.799 40.3296C110.532 41.3678 108.773 42.4974 107.319 41.7379C106.673 41.4052 106.394 40.5104 106.407 39.7859C106.44 37.7477 107.353 35.6561 109.043 33.6001C110.718 31.5592 112.536 30.3163 113.961 30.3038Z" fill="white"/>
</svg>
