<?xml version="1.0" encoding="UTF-8"?>
<svg id="Livello_1" xmlns="http://www.w3.org/2000/svg" version="1.1" viewBox="0 0 677.23 115.54">
  <!-- Generator: Adobe Illustrator 30.5.1, SVG Export Plug-In . SVG Version: 2.1.4 Build 3)  -->
  <defs>
    <style>
      .st0 {
        fill: #fff;
      }
    </style>
  </defs>
  <path class="st0" d="M82.2,112v-54.4c-.2-4-5.5-5.2-8.5-5.1-4.4.2-7.9,2.5-7.9,6.9v52.5l-10.6-.2.4-110.3,74.7,110.1c-7.3.5-13.2.6-19.9.6l-.2-18.7c0-4.9-4-8-8.1-7.8s-7.9,3.1-8,8l-.2,18.4h-11.8.1Z"/>
  <path class="st0" d="M576.5,54.7c0-5.4-2.3-12.3-7-14.3-9.5-3.9-19.7,1.6-24.9,10.1-8.7,14.3-9,34.2-7.6,51.4.7,8.2,9.3,9.2,16.4,10.1-15.2.9-30.8.8-46.1.1,3.8-.9,7.7-1.3,10.5-2.7s4.3-6.2,4.2-9.5v-49.8c-.1-6.3-4.8-11.1-10.7-11.5s-4.8-.5-7.2-1.1l32.3-2.3.5,24.7c5.9-19.5,25.1-30.2,43.5-22.5s10.3,11.6,10.4,18.4l.3,46.5c0,3.4,2.6,7.5,6,8l10.4,1.7c-15.6.7-30.9.8-47.3,0l11.1-2c2.2-.4,5.2-4.2,5.2-6.7v-48.7.1Z"/>
  <path class="st0" d="M445.5,114.4c-9-1.5-15.9-10-15.6-18.8.6-18.8,29-24.7,47.3-27.5,0-7-.3-14.2-1.4-20.9-1.2-7.4-7.1-11.3-14.4-10.8s-15.4,2.9-17.4,9.9c3.9,2.2,7.8,5.3,7.1,9.1s-4.3,8.1-9.6,7.7-8-3.9-8.1-8.9c-.4-17.2,23.7-23.3,41.1-17.9s17.7,12,17.8,23.1l.4,44.8c0,1.8,1.5,4.9,2.8,5.6s4.8-.3,6-1.4c4.9-4.8,4.1-11,6-17.8,1.5,5.2,1.1,11-1.3,15.8-3.6,7.5-14.8,10.7-21.7,6s-6.2-10.1-7.6-16.4c-5.1,12.3-17.7,20.6-31.4,18.4h0ZM452.7,108.7c10.4,5.1,24.2-9.3,24.3-21.5l.2-17.9-14.2,3.3c-10.7,2.5-16.4,11.8-15.7,22.8s.3,10.8,5.4,13.3h0Z"/>
  <path class="st0" d="M675.8,83.1c-5.8,22.8-29,35.5-50.7,26.6-12.6-5.2-22.8-16.1-24.9-29.9-3.1-20,9.5-39.1,28.4-45.2,11-3.6,22-.7,31.1,5.4,14.6,9.7,20.5,25.7,16.1,43.1h0ZM651.9,107.2c11.1-8.6,10.3-39.7,7.1-55s-10.6-17.6-21.5-17.2c-9.5.4-16.7,6.2-18.5,16-2.8,15.1-3.4,45.2,6.4,54.6s18.6,7.8,26.5,1.6Z"/>
  <path class="st0" d="M281.3,80.6c-4,19.8-20.5,33.7-41,31.6-15.9-1.6-30.2-13.4-34.4-29.1-4.2-15.5,2.4-31.2,14.1-41.2,13.2-11.3,30.9-11.6,44.8-2,13.5,9.3,19.9,23.8,16.5,40.7ZM256.9,107.2c11-8.6,10.3-40.3,6.9-55.8s-10.8-16.8-21.2-16.4-16.4,5.5-18.4,15.2c-3.2,15.2-3.8,46.6,6.8,55.8s18.3,7.2,26,1.2h-.1Z"/>
  <path class="st0" d="M295.4,104.5c-4.2,1-4.4,4.9-7.4,9.2-.5-11.9-.5-23.3,0-35.8,4.1,11.4,7.9,21,17.1,28,4.2,3.2,10,6.1,15.4,6s13.3-5,16.8-10.8,1.5-12.8-4.7-16.1c-16.6-9-41.9-9.8-43.4-28.2s2.1-11.7,6.9-16c11.3-9.1,26.6-9.8,39-2,1,.7,4.6,2.2,5.4,1.1l4-5.1-.3,27.2c-3.9-7.9-5.7-15-11.9-20.5-8.9-7.9-21.4-7.9-29.6.8-1.6,3.1-1.9,5.8-1,9.8,9.7,12.9,36.8,10.3,45.8,25,9,14.7,1.8,25.4-9.4,31.6s-30.4,6.2-42.8-4.6l.1.4Z"/>
  <path class="st0" d="M197.1,81.6c1.4,8.1,0,17.5-5.6,24.7-4.4,5.7-11.1,6.7-18.1,6.3s-18.6-7.7-18.6-18.4v-56.8c-.1,0-15.9-.6-15.9-.6,10.1-2.5,18.8-5.2,24-14s4.1-14.6,6.8-22.8l.4,34.6,24.2.6-.2,2-24.1.2v59.1c.1,3.6,2.3,8.6,5.1,10.1,5.8,3.2,12.6.7,16-4.5s4.9-12.4,6-20.3v-.2Z"/>
  <path class="st0" d="M374.7,52.3c-4.7,14.2-4.6,29.8-1.2,43.9,2.9,11.7,12.6,16.7,23.7,15.8,14.9-1.1,23.5-11.2,25.4-27.1,3.8,14.4-7.5,26.8-21.3,29.1s-11.4,1.7-16.7.3c-16.5-4.4-29.8-19.5-30.3-36.9s10.5-32.1,25.3-38.9,27.1-3.5,37,5.7,7,9.9,6.6,15.7-2.8,7-5.9,7.8-7.1.1-9.3-2.2-3.2-7.8-.7-10.2l5.2-5.1c-.3-6.4-5-10.2-10.7-11.9-11.7-3.4-22.9,1.6-27,14.1l-.1-.1Z"/>
  <path class="st0" d="M44.4,112h-16.1l.2-54.5c0-3.2,5.2-4.8,7.5-4.9s7.5,1.6,8.2,4.3l.2,55v.1Z"/>
  <path class="st0" d="M16.2,112H0c0,.1.3-18.6.3-18.6,0-4.5,4.5-7.6,7.7-7.5,5,0,8.1,3.4,8.2,8.4,0,0,0,17.7,0,17.7Z"/>
</svg>