<?xml version="1.0" encoding="UTF-8"?>
<svg id="Livello_1" xmlns="http://www.w3.org/2000/svg" version="1.1" viewBox="0 0 2426.48 1198.32">
  <!-- Generator: Adobe Illustrator 30.5.1, SVG Export Plug-In . SVG Version: 2.1.4 Build 3)  -->
  <defs>
    <style>
      .st0 {
        fill: none;
        stroke: #fff;
        stroke-miterlimit: 33.89;
        stroke-width: 20.74px;
      }

      .st1 {
        fill: #fff;
        fill-rule: evenodd;
      }
    </style>
  </defs>
  <path class="st1" d="M703.31,552.16c51.31.04,92.93-41.53,92.97-92.83.04-51.31-41.53-92.93-92.83-92.97h-.14c-51.31,0-92.9,41.59-92.9,92.9s41.59,92.9,92.9,92.9h0ZM909.31,552.16c51.31.04,92.93-41.53,92.97-92.83.04-51.31-41.53-92.93-92.83-92.97h-.14c-51.31,0-92.9,41.59-92.9,92.9s41.59,92.9,92.9,92.9h0ZM1115.32,552.16c51.31,0,92.9-41.61,92.89-92.92,0-51.31-41.61-92.9-92.92-92.89h0c-51.31,0-92.9,41.61-92.89,92.92s41.61,92.9,92.92,92.89h0Z"/>
  <path class="st0" d="M1321.32,552.16c51.31.01,92.91-41.57,92.93-92.88.01-51.31-41.57-92.91-92.88-92.93h-.08c-51.31.03-92.87,41.66-92.84,92.97.03,51.27,41.6,92.82,92.87,92.84"/>
  <path class="st1" d="M1527.32,552.16c51.31.01,92.91-41.57,92.93-92.88.01-51.31-41.57-92.91-92.88-92.93h-.08c-51.31.03-92.87,41.66-92.84,92.97.03,51.27,41.6,92.82,92.87,92.84h0ZM1733.32,552.16c51.32,0,92.89-41.59,92.89-92.9s-41.57-92.9-92.89-92.9c-51.31-.04-92.93,41.53-92.97,92.83s41.53,92.93,92.83,92.97h.14ZM806.3,739.45c51.32-.86,92.22-43.15,91.36-94.47-.84-50.11-41.26-90.53-91.36-91.36-51.32.86-92.22,43.15-91.36,94.47.84,50.11,41.26,90.53,91.36,91.36ZM1012.3,739.45c51.32-.86,92.22-43.15,91.36-94.47-.84-50.11-41.26-90.53-91.36-91.36-51.32.86-92.22,43.15-91.36,94.47.84,50.11,41.26,90.53,91.36,91.36ZM1218.31,739.45c51.32-.86,92.22-43.15,91.36-94.47-.84-50.11-41.26-90.53-91.36-91.36-51.32,0-92.92,41.6-92.92,92.92s41.6,92.92,92.92,92.92ZM1424.29,739.45c51.32-.86,92.22-43.15,91.36-94.47-.84-50.11-41.26-90.53-91.36-91.36-51.32.86-92.22,43.15-91.36,94.47.84,50.11,41.26,90.53,91.36,91.36ZM1630.31,739.45c51.32-.86,92.22-43.15,91.36-94.47-.84-50.11-41.26-90.53-91.36-91.36-51.32.86-92.22,43.15-91.36,94.47.84,50.11,41.26,90.53,91.36,91.36ZM909.31,185.8c51.31,0,92.91-41.59,92.91-92.89,0-51.31-41.59-92.91-92.89-92.91h-.01c-51.31,0-92.9,41.6-92.89,92.91,0,51.3,41.59,92.89,92.89,92.89ZM1115.32,185.8c51.31,0,92.91-41.58,92.92-92.89,0-51.31-41.58-92.91-92.89-92.92h-.06c-51.31.04-92.87,41.67-92.83,92.98.04,51.26,41.59,92.8,92.85,92.83ZM1321.32,185.8c51.31.02,92.92-41.56,92.94-92.87S1372.7.02,1321.39,0h-.09c-51.31.03-92.88,41.65-92.84,92.96.03,51.27,41.6,92.82,92.87,92.84ZM1527.32,185.8c51.31.02,92.92-41.56,92.94-92.87S1578.7.02,1527.39,0h-.09c-51.31.03-92.88,41.65-92.84,92.96.03,51.27,41.6,92.82,92.87,92.84ZM806.3,373.09c51.31.6,93.39-40.51,93.99-91.83.6-51.31-40.51-93.39-91.83-93.99-.73,0-1.45,0-2.18,0-51.31.61-92.42,42.69-91.81,94,.6,50.46,41.36,91.23,91.83,91.81ZM1012.3,373.09c51.32.02,92.93-41.57,92.95-92.89.02-51.32-41.57-92.93-92.89-92.95h-.06c-51.32.02-92.9,41.63-92.89,92.95.02,51.29,41.59,92.87,92.89,92.89ZM1218.31,373.09c51.31.6,93.39-40.51,93.99-91.83.6-51.31-40.51-93.39-91.83-93.99-.73,0-1.45,0-2.18,0-51.31.61-92.42,42.69-91.81,94,.6,50.46,41.36,91.23,91.83,91.81ZM1424.29,373.09c51.32.02,92.93-41.57,92.95-92.89.02-51.32-41.57-92.93-92.89-92.95h-.06c-51.32.02-92.9,41.63-92.89,92.95.02,51.29,41.59,92.87,92.89,92.89ZM1630.31,373.09c51.31-.01,92.9-41.62,92.89-92.93-.01-51.31-41.62-92.9-92.93-92.89-51.31.01-92.9,41.62-92.89,92.93.01,51.31,41.62,92.9,92.93,92.89h0Z"/>
  <path class="st1" d="M33.76,958.62l60.92.03-33.72,192.37-60.96-.03,33.76-192.37h0ZM232.82,1124.54c-20.3,18.9-46.98,29.05-76.57,29.05-53.32-.03-81.89-34.18-74.29-77.61,7.68-43.72,47.69-76.43,93.4-76.43s77.69,36.43,61.9,88.05l-101.06-.05c-2.39,15.25,13.84,29.64,37.29,29.64,16.39.03,32.53-5.07,52.48-16.9l6.86,24.25h0ZM191.02,1065.57c3.55-21.98-3.24-33.28-20.82-33.28-15.84,0-29.86,9.86-32.5,33.28h53.32Z"/>
  <path class="st1" d="M410.29,1031.52l-23.14-.03c5.06,9.6,6.3,17.51,4.33,28.78-2.39,13.55-9.47,23.97-19.75,32.42-27.74,22.85-51.24,12.81-53.47,24.24-2.22,11.43,37.74-4.68,56.24,14.62,6.33,6.61,8.65,14.24,6.87,23.38-4.34,22.32-33.94,43.37-91.06,43.37s-72.41-16.26-68.96-34.05c2.78-14.21,19.95-27.16,44.21-29.95l.09-.51c-8.15-3.29-11.22-8.64-9.82-15.73,1.58-8.13,9.27-6.46,21.72-10.29-23.02-8.13-33-26.7-29.04-49.25,4.7-26.8,32.01-58.97,92.66-58.95l74.71.03-5.59,31.89h0ZM316.14,1078.86c14.64,0,27.42-9.3,29.6-21.74,2.18-12.39-6.85-21.13-21.78-21.13s-26.83,9.27-29,21.71c-2.09,11.84,7.12,21.15,21.18,21.15h0ZM296.64,1177.73c20.52,0,32.44-5.58,34.56-16.48,2.17-11.17-8.65-18.77-27.69-18.79-17.57,0-30.67,7.12-32.79,18.04-2,10.14,3.94,17.24,25.91,17.24h0ZM546.82,1153.12c-30.53,2-45.21-1.14-52.36-13.83-16.11,9.52-34.5,14.49-53.21,14.38-34.56-.03-46.2-17.22-42.83-36.43,1.58-9.01,7.26-18.04,16.17-25.36,19.18-15.81,66.16-18.07,84.68-30.17,1.79-13.55-3.81-18.34-21.1-18.34-20.22,0-37.17,6.48-66.26,25.36l7.67-43.7c25.32-17.51,49.56-25.38,77.39-25.38,35.74,0,66.96,14.14,60.37,51.62l-7.42,42.33c-2.62,14.94-2.24,19.45,14.99,19.73l-18.09,39.78ZM494.91,1086.52c-16.38,9.88-46.25,8.18-49.82,28.49-1.69,9.6,4.41,16.64,14.37,16.64,9.66.03,21.49-3.93,30.78-10.16-.57-3.37-.23-7.04.96-13.8l3.71-21.18h0ZM797.9,1151.21h-97.55c-47.75-.05-73.18-30.53-65.26-75.64,7.98-45.39,44.94-75.87,91.81-75.87,12.89,0,22.85,1.73,35.54,6.23l8.26-47.12,60.94.03-33.75,192.38ZM754.52,1051.06c-7.56-1.97-14.38-3.09-21.13-3.09-19.34-.03-34.5,11.27-37.46,28.2-2.88,16.37,9.07,26.8,30.17,26.8,6.16,0,11.57-.83,19.78-2.53l8.64-49.38h0ZM968.39,1124.74c-20.3,18.9-46.99,29.05-76.57,29.05-53.32,0-81.9-34.18-74.29-77.61,7.67-43.72,47.68-76.43,93.38-76.43,47.16.03,77.7,36.43,61.92,88.03h-101.07c-2.39,15.23,13.85,29.58,37.29,29.61,16.42,0,32.54-5.07,52.49-16.9l6.86,24.25h0ZM926.57,1065.78c3.55-21.98-3.24-33.28-20.82-33.28-15.82,0-29.86,9.88-32.5,33.28h53.32ZM1014.17,958.89h60.93l-33.73,192.39-60.93-.03,33.73-192.37h0ZM1164.84,1057.94h-23.73l6.52-37.24h23.73l1.53-8.74c6.23-35.54,33.19-55.55,71.87-55.55,8.7-.03,17.37,1.01,25.81,3.11l-6.81,38.91c-4.15-1.39-6.41-1.95-9.93-1.95-12.01,0-18.37,6.19-20.78,20.01l-.77,4.23h26.37l-6.51,37.24h-26.37l-16.38,93.37-60.93-.03,16.38-93.37h0ZM1275.67,1002.39l60.92.03-26.12,148.94-60.92-.03,26.12-148.94ZM1331.98,971.94c-1.92,11.02-12.57,19.75-23.97,19.75s-19-8.74-17.04-19.75c1.92-11,12.54-19.73,23.97-19.73s18.97,8.75,17.04,19.73ZM1360.87,959l60.92.03-33.72,192.37-60.94-.03,33.75-192.37ZM1516.22,1006.62c65.91,0,83.93,40.91,77.59,77.03-6.91,39.47-42.48,76.99-104.02,76.96-65.91,0-84.56-40.63-78.19-77.01,6.74-38.36,40.76-77,104.63-76.98ZM1497.68,1112.38c17.86,0,32.24-11.83,35.21-28.75,2.97-16.95-7.28-28.78-25.14-28.78s-32.24,11.83-35.24,28.75c-2.93,16.93,7.3,28.78,25.16,28.78h0ZM1816.3,1151.49h-97.55c-47.78-.03-73.19-30.5-65.28-75.61,7.98-45.42,44.97-75.9,91.83-75.87,12.89,0,22.85,1.7,35.54,6.21l8.26-47.09h60.92l-33.72,192.37ZM1772.9,1051.36c-7.55-1.97-14.38-3.11-21.13-3.11-19.33,0-34.5,11.27-37.47,28.2-2.87,16.37,9.07,26.82,30.17,26.82,6.16,0,11.58-.86,19.78-2.53l8.65-49.38h0ZM1836.79,1075.45c22.83-9.88,35.54-22.3,42.39-41.19-16.51-4.51-24.82-17.2-22.06-33.01,3.51-20.01,21.96-34.98,42.76-34.98,25.17.03,39.7,19.2,35.01,46-6.06,34.42-43.09,70.24-98.95,67.96l.86-4.79h0ZM2026.58,1000.09c65.89.03,83.93,40.93,77.59,77.03-6.91,39.49-42.48,77.01-104.02,76.99-65.94-.03-84.58-40.66-78.19-77.03,6.72-38.38,40.74-77.01,104.63-76.99h0ZM2008,1105.87c17.89,0,32.27-11.85,35.24-28.78s-7.28-28.78-25.14-28.78-32.24,11.85-35.24,28.78c-2.96,16.93,7.28,28.78,25.14,28.78ZM2180.52,1002.67l-6.96,39.77h.61c15.71-27.94,35.51-42.31,56.92-42.28,11.7,0,22.77,3.67,35.43,11.56l-37.31,59.22c-8.13-8.74-15.41-12.41-23.89-12.41-14.94,0-27.96,14.11-34.23,31.28l-10.82,61.79h-60.94l26.12-148.94,55.07.03h0ZM2347.68,1000.16c65.91.03,83.95,40.93,77.61,77.03-6.94,39.49-42.53,76.99-104.03,76.99-65.91,0-84.56-40.63-78.19-77.03,6.71-38.36,40.75-76.99,104.61-76.99h0ZM2329.11,1105.94c17.89,0,32.27-11.83,35.24-28.75s-7.25-28.81-25.14-28.81-32.24,11.85-35.21,28.78,7.28,28.78,25.11,28.78Z"/>
</svg>