<svg width="164" height="82" viewBox="0 0 164 82" fill="none" xmlns="http://www.w3.org/2000/svg">
<path fill-rule="evenodd" clip-rule="evenodd" d="M160.41 17.9297C159.58 17.9297 158.785 18.2592 158.198 18.8457C157.612 19.4323 157.282 20.2278 157.282 21.0573C157.282 21.8868 157.612 22.6823 158.198 23.2689C158.785 23.8554 159.58 24.1849 160.41 24.1849C160.821 24.1846 161.228 24.1031 161.607 23.9452C161.987 23.7873 162.331 23.5561 162.621 23.2647C162.911 22.9734 163.14 22.6277 163.296 22.2475C163.452 21.8673 163.532 21.46 163.53 21.049C163.53 20.2217 163.201 19.4282 162.616 18.8433C162.031 18.2583 161.237 17.9297 160.41 17.9297ZM160.41 23.8084C160.048 23.8087 159.689 23.7374 159.355 23.5987C159.021 23.46 158.717 23.2566 158.461 23.0002C158.206 22.7438 158.003 22.4395 157.866 22.1046C157.728 21.7698 157.658 21.4111 157.659 21.049C157.66 20.6883 157.731 20.3312 157.869 19.9981C158.008 19.665 158.211 19.3625 158.466 19.1079C158.722 18.8532 159.025 18.6514 159.358 18.514C159.692 18.3766 160.049 18.3063 160.41 18.3071C161.137 18.3071 161.834 18.596 162.349 19.1102C162.863 19.6244 163.152 20.3218 163.152 21.049C163.154 21.4104 163.084 21.7687 162.947 22.1031C162.81 22.4376 162.609 22.7418 162.354 22.9981C162.099 23.2545 161.796 23.4581 161.463 23.5971C161.129 23.7361 160.771 23.808 160.41 23.8084Z" fill="white"/>
<path fill-rule="evenodd" clip-rule="evenodd" d="M162.017 20.2296C162.017 19.935 161.886 19.6238 161.624 19.4765C161.362 19.3214 161.067 19.3048 160.771 19.3048H159.249V22.8007H159.674V21.1874H160.46L161.458 22.8007H161.967L160.91 21.1874C161.533 21.1709 162.017 20.9172 162.017 20.2296ZM160.33 20.8519H159.674V19.616H160.673C161.107 19.616 161.582 19.6814 161.582 20.2217C161.583 20.9338 160.819 20.8519 160.33 20.8519ZM55.6935 72.6344L35.3119 62.6819C34.8639 62.4501 34.6329 61.8574 34.6417 61.4696L34.6957 55.9752C34.7035 55.5882 34.7802 55.1908 35.2884 54.8265C37.4673 53.4372 44.215 49.7025 51.1858 39.5287C60.4697 25.9784 51.1858 14.594 36.6759 17.6933C23.7889 20.4457 10.6692 27.4235 4.9787 31.2174C-0.0929572 34.5982 0.61127 38.6833 0.470947 42.3465C0.752464 43.8953 1.31637 43.7549 2.5845 42.2053C12.0227 33.4713 26.3923 26.85 29.0688 25.7231C31.7454 24.5961 38.0852 20.7926 45.5519 22.4826C52.7241 24.1072 50.9809 33.8583 48.7916 37.9791C46.3965 42.4868 39.5643 49.0375 36.465 50.6578C35.2875 51.2731 34.8456 50.6578 34.8456 49.6712L35.3389 28.4694C35.3389 27.0609 34.7044 26.4264 33.296 26.9197L31.0421 28.0467C29.4924 28.9627 29.563 29.3148 29.4218 30.4417L29.0802 54.884C29.0688 55.4113 28.8231 55.8349 28.5328 55.9595L21.1803 60.0951C19.4903 60.9405 19.9121 62.2087 21.1803 62.6314L27.0974 65.4483C28.5067 66.0113 28.9294 66.434 28.9294 67.8425L28.7176 79.6766C34.001 78.6203 34.3523 76.084 34.4935 74.3932V70.8006C34.6338 69.9552 35.1271 69.6736 35.8313 69.8148L53.0178 78.1261C54.5674 78.8312 55.4129 78.548 56.5398 76.5773C57.6659 74.6067 57.8071 73.621 55.6935 72.6344ZM85.7286 42.777C83.3405 44.1559 82.2354 46.7366 83.1767 48.3655C84.1162 49.9954 86.9575 50.269 89.3474 48.8885C91.7372 47.5088 92.7709 44.9987 91.8296 43.3697C90.89 41.7407 88.1185 41.3965 85.7286 42.777Z" fill="white"/>
<path fill-rule="evenodd" clip-rule="evenodd" d="M76.9162 44.5314C76.2668 45.3228 75.0144 47.737 74.3102 49.2161C73.6059 50.6942 72.1269 54.0402 70.6478 54.0402C69.0842 54.0402 68.8864 50.1669 68.8864 48.7576C68.8864 47.3483 68.041 47.1374 67.6183 47.208C67.1956 47.2786 65.998 47.7004 65.6459 49.1803C65.2938 50.6594 63.392 57.0698 61.2785 57.0698C59.9406 57.0698 58.954 53.1956 58.8843 51.9981C58.8137 50.8014 58.2498 49.8148 57.0522 49.8148C56.2068 49.8148 55.1505 50.2375 54.7278 50.7308C54.3051 51.2242 54.2353 51.9981 51.9806 51.5057C49.9376 51.4351 47.9653 52.4923 45.5711 56.5067C44.1295 58.9236 42.9581 63.4279 45.1484 65.2407C47.1913 66.9307 50.7831 63.902 51.8403 62.6339C52.8966 61.3666 53.8126 60.4506 54.2353 59.7472C54.6572 59.0421 55.0808 59.1127 55.2917 59.8169C55.5026 60.522 56.7001 63.2684 58.2506 63.1986C59.8003 63.128 61.7727 61.9305 64.0971 57.8446C64.5198 56.9992 65.1535 57.0698 65.2947 57.774C65.4359 58.4791 66.351 60.8036 67.9007 60.8036C69.3797 60.8036 71.0252 58.4538 71.8454 57.0706C72.4084 56.1198 73.2538 56.5782 73.2538 57.4933C73.2538 58.4085 72.8311 80.033 72.8311 80.033C72.8311 81.0187 73.2181 81.3002 73.9223 81.3002H76.9867C77.5498 81.3002 78.0431 80.8078 78.0431 80.033L78.6767 44.9898C78.6776 44.1435 77.7267 43.5456 76.9162 44.5314ZM52.9681 58.337C52.3336 59.3942 50.6436 62.2111 49.1645 61.7187C48.3897 61.296 49.4225 58.4782 49.9394 57.4925C50.7142 56.0134 52.9855 53.6576 54.0244 54.252C55.011 54.815 53.6017 57.2807 52.9681 58.337ZM160.292 36.7326C160.011 36.9792 159.553 37.402 158.532 36.9435C156.77 36.2393 156.63 32.9291 155.715 29.8995C154.891 27.1785 152.909 27.3493 152.193 28.5965L150.044 32.0479C149.656 32.7521 148.812 34.3724 147.966 34.3724C146.98 34.3724 147.421 32.9631 147.474 31.5546C147.508 30.6037 146.909 29.4071 145.923 29.4071C144.796 29.4071 143.6 31.1319 142.684 33.1051C142.044 34.4848 140.394 39.7613 138.316 39.7613C136.978 39.7613 136.836 35.8872 136.767 34.6896C136.697 33.4921 136.273 32.013 135.077 32.013C134.266 32.013 133.739 32.4349 133.315 32.9282C132.894 33.4215 132.824 33.8433 131.344 33.6324C129.301 33.5618 125.92 35.4645 123.525 39.4789C122.083 41.8958 120.348 46.9639 122.539 48.7768C124.582 50.4668 128.244 46.522 129.301 45.2548C130.356 43.9867 131.272 43.0706 131.696 42.3673C132.118 41.6622 132.541 41.7328 132.751 42.4379C132.962 43.1421 134.161 45.8893 135.71 45.8187C137.261 45.7481 138.527 45.396 140.853 41.3101C141.274 40.4655 142.049 40.3601 142.191 41.0643C142.332 41.7685 142.473 43.6354 143.952 43.6354C146.486 43.6354 149.36 37.4656 150.08 36.0275C150.714 34.7594 151.734 35.1115 152.087 36.0624C152.591 37.4237 153.037 41.8034 155.784 41.8034C158.532 41.8034 160.398 38.8801 160.961 37.9641C161.596 37.0498 161.266 35.8811 160.292 36.7326ZM130.427 40.9588C129.793 42.0152 128.384 44.3396 126.905 43.8463C126.13 43.4236 127.092 41.3815 127.61 40.3949C128.385 38.9159 130.655 36.526 131.696 37.1196C132.681 37.6835 131.061 39.9016 130.427 40.9588ZM116.819 37.2669C116.819 37.2669 110.832 32.8994 109.142 30.9279C108.006 29.6032 108.789 28.6035 109.494 28.0404C113.719 25.2227 120.34 20.8552 122.947 14.0936C125.458 7.57602 121.538 1.90821 118.72 0.99219C114.859 -0.261996 106.675 2.26032 102.589 9.86737C99.9439 14.7943 98.7167 16.4181 98.3637 29.801C98.2957 32.3355 98.2225 35.2248 98.2225 38.3947C98.2225 41.5646 97.8704 50.1574 97.5174 51.7767C96.1796 55.5802 100.195 53.3264 102.025 51.8482C103.857 50.3683 103.715 48.1501 103.715 47.1992C103.715 46.0008 103.787 24.8705 104.42 20.151C104.815 17.2156 105.267 11.7691 108.364 7.04959C111.464 2.33005 114.633 4.23268 115.48 5.00664C116.324 5.78146 117.523 7.75382 116.887 11.7691C115.903 18 108.716 24.7999 106.884 26.9126C105.054 29.0253 105.477 30.8574 106.534 32.3364C107.284 33.3884 109.14 35.4357 111.042 37.3375C112.943 39.2392 112.732 40.9301 112.451 42.1982C111.463 46.0008 101.18 56.2854 101.18 56.2854C98.9956 58.6098 101.249 62.4133 102.024 63.6806C102.801 64.9487 103.786 64.5269 104.419 63.4697C106.956 58.751 117.873 47.3396 117.873 47.3396C121.046 43.3243 119.707 39.4501 116.819 37.2669Z" fill="white"/>
</svg>
