<?xml version="1.0" encoding="UTF-8"?>
<svg id="Livello_1" data-name="Livello 1" xmlns="http://www.w3.org/2000/svg" viewBox="0 0 189.8 99.3">
  <defs>
    <style>
      .cls-1 {
        fill: #fff;
      }
    </style>
  </defs>
  <path class="cls-1" d="M33.9,23.4l-10.6,75.9h-4.5S31,11.5,31,11.5c1.5,1.2,2.7,2.3,4,3.4-.2,1.6-.4,2.9-.5,4.7,1.2-2.1,2-3.7,3-5.8l-5-4.4c-.3-.2-.4-1.4,0-1.4h7.6s3.4-7.2,3.4-7.2l.3-.6c0-.2,1,0,1,.2l1.7,7.6h9s0,.9,0,.9l-8,5.2,1.3,8.7c-.2.2-.6.5-.9.5l-5.9-5.6-8,5.7Z"/>
  <path class="cls-1" d="M140.5,86.9h-6.9s2.8-20,2.8-20c0-.4-.2-1.2-.5-1.5s-1-.4-1.5-.4c-1.7-.2-3,.8-3.2,2.6l-2.7,19.3h-6.9s5.6-39.8,5.6-39.8h6.8s-2,14.1-2,14.1c2.4-2,4.8-2.6,7.6-2.2s2.5.6,3.5,1.7c.6,1.3.7,2.6.6,4.1l-3.1,22.1Z"/>
  <path class="cls-1" d="M180.6,65.1c-1.9-.2-3,.9-3.3,2.6l-2.7,19.2h-6.9s3.8-27.5,3.8-27.5h6.9s-.2,1.9-.2,1.9c3.3-3.3,10.4-3,11.3.3s.3,2.6.2,4l-3,21.4h-6.9s2.8-19.7,2.8-19.7c0-.6-.1-1.3-.4-1.6s-1-.5-1.6-.5Z"/>
  <path class="cls-1" d="M159.2,86.3c-3.1,1.2-6.5,1.1-9.5.1s-4.5-4.8-4-8.6l1.4-10.1c.6-4,2.4-7.4,6.4-8.4s6-.6,8.9.3,4.3,4.7,3.8,8.6l-1.7,11.3c-.5,3-2.4,5.7-5.3,6.8ZM157.7,78.9l1.7-11.7c0-.5-.3-1.5-.6-1.7s-1.1-.3-1.6-.4c-1.4-.1-2.7.6-2.9,2.1l-1.7,11.8c0,.5.2,1.5.5,1.8s1,.5,1.5.5c1.5.2,2.9-.6,3.2-2.3Z"/>
  <path class="cls-1" d="M97.3,78.1l6.1,1.2c-.7,3.6-2,6.7-5.8,7.6s-5.4.5-8-.2c-4.1-1.2-5-5-4.3-9.2l1.5-9.9c.6-3.8,2.2-7.1,6-8.1,4.5-1.2,11.4-.8,12.5,4.1.2,1.2.3,2.6.1,3.9l-1.1,8.2h-11.8s-.5,4-.5,4c.1,1.4.9,2.1,2.3,2.1s2.1-.4,2.6-1.5l.6-2.2ZM98.3,70.2l.4-3.6c0-.4-.2-1.3-.6-1.5s-1-.3-1.4-.4c-1.6-.2-2.9.6-3.1,2.2l-.6,3.3h5.2Z"/>
  <path class="cls-1" d="M63.4,78.1l6.1,1.1c-.7,3.6-2,6.7-5.8,7.6s-5.3.5-7.8-.2c-4.2-1.2-5.1-5-4.5-9.2l1.5-9.8c.5-3.7,2.1-7,5.8-8s5.9-.8,8.7,0,3.3,1.9,3.9,3.9c.2,1.4.3,2.9.2,4.3l-1.1,8h-11.8s-.5,4-.5,4c.1,1.4.9,2.1,2.3,2.1s1.5-.3,2.3-.8l.9-2.9ZM64.4,70.2l.4-3.6c0-.4-.3-1.3-.6-1.5s-1-.3-1.4-.4c-1.6-.2-2.9.6-3.1,2.2l-.6,3.3h5.2Z"/>
  <path class="cls-1" d="M43.6,99.3h-4.5S50.9,14.7,50.9,14.7c1.6-1.1,3.1-2.2,5-3.2l-12.3,87.8Z"/>
  <path class="cls-1" d="M30,99.3h-4.5s10.4-74.2,10.4-74.2c1.6-1.2,3.2-2.4,5-3.5l-10.9,77.6Z"/>
  <polygon class="cls-1" points="36.8 99.2 32.3 99.3 43.1 22.4 47.1 26 36.8 99.2"/>
  <path class="cls-1" d="M6.8,23.4l-2.3,16.3H0S4,11.4,4,11.4l4,3.4c-.2,1.6-.4,2.9-.5,4.7l3-5.7-4.9-4.3-.5-.6c-.1-.2.3-.8.5-1h7.5S16.7.2,16.7.2c.2,0,.8,0,1,0l1.7,7.8h9s-.2,1-.2,1l-7.9,5.1,1.3,8.7-.8.7-6.1-5.8-8,5.7Z"/>
  <path class="cls-1" d="M60.9,23.4l-2.3,16.3h-4.5s4-28.2,4-28.2c1.4,1.1,2.7,2.2,4,3.4-.2,1.6-.5,2.9-.5,4.7l3-5.8-4.8-4.2c-.3-.3-.7-1.5-.3-1.5h7.8c0,0,3.5-7.5,3.5-7.5,0-.2.4-.5.5-.6s.7.3.8.5l1.6,7.4h9.1c0,.7-.3,1.1-.7,1.4l-7.4,4.7,1.3,8.8c-.2.1-.6.4-.9.5l-6-5.6-8,5.7Z"/>
  <path class="cls-1" d="M118.8,80.9l-.8,6c-1.9,0-3.8,0-5.7-.2s-4.2-2.5-3.9-5.2l2.1-15.9h-2.9s.8-6.2.8-6.2h2.9s1.2-8.2,1.2-8.2h6.9s-1.2,8.2-1.2,8.2h3.5s-.9,6.2-.9,6.2h-3.5s-1.9,13.9-1.9,13.9c0,.2.2,1.2.5,1.2l2.7.2Z"/>
  <polygon class="cls-1" points="79.9 86.9 73 86.9 78.6 47.2 85.5 47.2 79.9 86.9"/>
  <path class="cls-1" d="M24.8,39.7h-4.5s3.5-25,3.5-25c1.6-1.1,3-2.1,5-3.3l-4,28.3Z"/>
  <path class="cls-1" d="M79,39.7h-4.5s3.5-24.9,3.5-24.9c1.6-1.2,3.1-2.3,5-3.3l-4,28.2Z"/>
  <path class="cls-1" d="M11.3,39.6h-4.5c0,0,2-14.5,2-14.5,1.6-1.2,3.1-2.3,5-3.5l-2.5,18Z"/>
  <polygon class="cls-1" points="65.4 39.6 60.9 39.7 63 25.1 67.9 21.6 65.4 39.6"/>
  <polygon class="cls-1" points="18.1 39.6 13.5 39.7 16 22.3 20 26 18.1 39.6"/>
  <polygon class="cls-1" points="72.2 39.7 67.7 39.7 70.1 22.4 74.1 26.1 72.2 39.7"/>
</svg>